<?xml version="1.0" encoding="utf-8" standalone="no"?>
<!DOCTYPE svg PUBLIC "-//W3C//DTD SVG 1.1//EN"
  "http://www.w3.org/Graphics/SVG/1.1/DTD/svg11.dtd">
<svg xmlns:xlink="http://www.w3.org/1999/xlink" width="817.92pt" height="329.04pt" viewBox="0 0 817.92 329.04" xmlns="http://www.w3.org/2000/svg" version="1.1">
 <metadata>
  <rdf:RDF xmlns:dc="http://purl.org/dc/elements/1.1/" xmlns:cc="http://creativecommons.org/ns#" xmlns:rdf="http://www.w3.org/1999/02/22-rdf-syntax-ns#">
   <cc:Work>
    <dc:type rdf:resource="http://purl.org/dc/dcmitype/StillImage"/>
    <dc:date>2026-10-05T06:05:43.730496</dc:date>
    <dc:format>image/svg+xml</dc:format>
    <dc:creator>
     <cc:Agent>
      <dc:title>Matplotlib v3.11.2, https://matplotlib.org/</dc:title>
     </cc:Agent>
    </dc:creator>
   </cc:Work>
  </rdf:RDF>
 </metadata>
 <defs>
  <style type="text/css">*{stroke-linejoin: round; stroke-linecap: butt}</style>
 </defs>
 <g id="figure_1">
  <g id="patch_1">
   <path d="M 0 329.04 
L 817.92 329.04 
L 817.92 0 
L 0 0 
z
" style="fill: #ffffff"/>
  </g>
  <g id="axes_1">
   <g id="patch_2">
    <path d="M 30.07 155.54133 
L 103 155.54133 
Q 105.946667 155.54133 105.946667 152.999835 
L 105.946667 121.866521 
Q 105.946667 119.325026 103 119.325026 
L 30.07 119.325026 
Q 27.123333 119.325026 27.123333 121.866521 
L 27.123333 152.999835 
Q 27.123333 155.54133 30.07 155.54133 
z
" clip-path="url(#p765657f4c6)" style="fill: #ffffff; stroke: #545454; stroke-width: 1.7; stroke-linejoin: miter"/>
   </g>
   <g id="patch_3">
    <path d="M 136.886667 165.071936 
L 228.233333 165.071936 
Q 231.18 165.071936 231.18 162.530441 
L 231.18 112.335915 
Q 231.18 109.79442 228.233333 109.79442 
L 136.886667 109.79442 
Q 133.94 109.79442 133.94 112.335915 
L 133.94 162.530441 
Q 133.94 165.071936 136.886667 165.071936 
z
" clip-path="url(#p765657f4c6)" style="fill: #ffffff; stroke: #606060; stroke-width: 1.7; stroke-linejoin: miter"/>
   </g>
   <g id="patch_4">
    <path d="M 269.486667 155.54133 
L 346.1 155.54133 
Q 349.046667 155.54133 349.046667 152.999835 
L 349.046667 121.866521 
Q 349.046667 119.325026 346.1 119.325026 
L 269.486667 119.325026 
Q 266.54 119.325026 266.54 121.866521 
L 266.54 152.999835 
Q 266.54 155.54133 269.486667 155.54133 
z
" clip-path="url(#p765657f4c6)" style="fill: #ffffff; stroke: #545454; stroke-width: 1.7; stroke-linejoin: miter"/>
   </g>
   <g id="patch_5">
    <path d="M 265.803333 250.847392 
L 353.466667 250.847392 
Q 356.413333 250.847392 356.413333 248.305897 
L 356.413333 213.995715 
Q 356.413333 211.45422 353.466667 211.45422 
L 265.803333 211.45422 
Q 262.856667 211.45422 262.856667 213.995715 
L 262.856667 248.305897 
Q 262.856667 250.847392 265.803333 250.847392 
z
" clip-path="url(#p765657f4c6)" style="fill: #ffffff; stroke: #808080; stroke-width: 1.7; stroke-linejoin: miter"/>
   </g>
   <g id="patch_6">
    <path d="M 125.836667 292.146686 
L 231.916667 292.146686 
Q 234.863333 292.146686 234.863333 289.605191 
L 234.863333 252.11814 
Q 234.863333 249.576645 231.916667 249.576645 
L 125.836667 249.576645 
Q 122.89 249.576645 122.89 252.11814 
L 122.89 289.605191 
Q 122.89 292.146686 125.836667 292.146686 
z
" clip-path="url(#p765657f4c6)" style="fill: #ffffff; stroke: #808080; stroke-width: 1.7; stroke-linejoin: miter"/>
   </g>
   <g id="patch_7">
    <path d="M 105.21 137.433178 
Q 119.0225 137.433178 131.269752 137.433178 
" clip-path="url(#p765657f4c6)" style="fill: none; stroke: #404040; stroke-width: 1.4; stroke-linecap: round"/>
    <path d="M 126.469752 135.033178 
L 131.269752 137.433178 
L 126.469752 139.833178 
z
" clip-path="url(#p765657f4c6)" style="fill: #404040; stroke: #404040; stroke-width: 1.4; stroke-linecap: round"/>
   </g>
   <g id="patch_8">
    <path d="M 230.443333 137.433178 
Q 247.939167 137.433178 263.869752 137.433178 
" clip-path="url(#p765657f4c6)" style="fill: none; stroke: #404040; stroke-width: 1.4; stroke-linecap: round"/>
    <path d="M 259.069752 135.033178 
L 263.869752 137.433178 
L 259.069752 139.833178 
z
" clip-path="url(#p765657f4c6)" style="fill: #404040; stroke: #404040; stroke-width: 1.4; stroke-linecap: round"/>
   </g>
   <g id="patch_9">
    <path d="M 307.793333 156.494391 
Q 307.793333 183.497775 307.793333 208.935912 
" clip-path="url(#p765657f4c6)" style="fill: none; stroke: #808080; stroke-width: 1.4; stroke-linecap: round"/>
    <path d="M 310.193333 204.135912 
L 307.793333 208.935912 
L 305.393333 204.135912 
z
" clip-path="url(#p765657f4c6)" style="fill: #808080; stroke: #808080; stroke-width: 1.4; stroke-linecap: round"/>
   </g>
   <g id="patch_10">
    <path d="M 263.593333 231.150806 
Q 248.86 250.212019 235.083905 268.034807 
" clip-path="url(#p765657f4c6)" style="fill: none; stroke: #808080; stroke-width: 1.4; stroke-linecap: round"/>
    <path d="M 239.918259 265.704782 
L 235.083905 268.034807 
L 236.120498 262.769308 
z
" clip-path="url(#p765657f4c6)" style="fill: #808080; stroke: #808080; stroke-width: 1.4; stroke-linecap: round"/>
   </g>
   <g id="patch_11">
    <path d="M 35.226667 285.157575 
L 94.16 285.157575 
L 94.16 250.212019 
L 35.226667 250.212019 
z
" clip-path="url(#p765657f4c6)" style="fill: #f5f5f5; stroke: #545454; stroke-width: 1.3; stroke-linejoin: miter"/>
   </g>
   <g id="patch_12">
    <path d="M 94.16 267.684797 
Q 107.9725 269.273231 120.230001 270.682841 
" clip-path="url(#p765657f4c6)" style="fill: none; stroke: #545454; stroke-width: 1.4; stroke-linecap: round"/>
    <path d="M 115.735622 267.750171 
L 120.230001 270.682841 
L 115.187237 272.518742 
z
" clip-path="url(#p765657f4c6)" style="fill: #545454; stroke: #545454; stroke-width: 1.4; stroke-linecap: round"/>
   </g>
   <g id="patch_13">
    <path d="M 178.876667 291.511312 
Q 178.876667 228.768155 178.876667 167.366638 
" clip-path="url(#p765657f4c6)" style="fill: none; stroke: #606060; stroke-width: 1.2; stroke-linecap: round"/>
    <path d="M 176.876667 171.366638 
L 178.876667 167.366638 
L 180.876667 171.366638 
z
" clip-path="url(#p765657f4c6)" style="fill: #606060; stroke: #606060; stroke-width: 1.2; stroke-linecap: round"/>
   </g>
   <g id="text_1">
    <text style="font-weight: 700; font-size: 9px; font-family: 'Noto Sans CJK JP', 'Noto Sans CJK JP Regular', 'DejaVu Sans', sans-serif; text-anchor: start; fill: #555555" x="14.6" y="82.13349" transform="rotate(-0 14.6 82.13349)">(a) PINN の学習ループ</text>
   </g>
   <g id="text_2">
    <text style="font-size: 9px; font-family: 'Noto Sans CJK JP', 'Noto Sans CJK JP Regular', 'DejaVu Sans', sans-serif" transform="translate(57.535 136.011459)">入力</text>
    <text style="font-size: 9px; font-family: 'Noto Sans CJK JP', 'Noto Sans CJK JP Regular', 'DejaVu Sans', sans-serif" transform="translate(57.260781 145.011459)">(x, t)</text>
   </g>
   <g id="text_3">
    <text style="font-size: 9px; font-family: 'Noto Sans CJK JP', 'Noto Sans CJK JP Regular', 'DejaVu Sans', sans-serif" transform="translate(160.06 136.353178)">ニューラル</text>
    <text style="font-size: 9px; font-family: 'Noto Sans CJK JP', 'Noto Sans CJK JP Regular', 'DejaVu Sans', sans-serif" transform="translate(155.56 145.353178)">ネットワーク</text>
   </g>
   <g id="text_4">
    <text style="font-size: 9px; font-family: 'Noto Sans CJK JP', 'Noto Sans CJK JP Regular', 'DejaVu Sans', sans-serif" transform="translate(298.793333 135.862397)">予測</text>
    <text style="font-size: 9px; font-family: 'Noto Sans CJK JP', 'Noto Sans CJK JP Regular', 'DejaVu Sans', sans-serif" transform="translate(283.939115 144.862397)">u(x,t), p(x,t)</text>
   </g>
   <g id="text_5">
    <text style="font-size: 9px; font-family: 'Noto Sans CJK JP', 'Noto Sans CJK JP Regular', 'DejaVu Sans', sans-serif" transform="translate(291.635 229.755806)">自動微分</text>
    <text style="font-size: 9px; font-family: 'Noto Sans CJK JP', 'Noto Sans CJK JP Regular', 'DejaVu Sans', sans-serif" transform="translate(277.895234 238.755806)">∂u/∂t, ∇u, …</text>
   </g>
   <g id="text_6">
    <text style="font-size: 9px; font-family: 'Noto Sans CJK JP', 'Noto Sans CJK JP Regular', 'DejaVu Sans', sans-serif" transform="translate(161.281667 269.781666)">PDE残差</text>
    <text style="font-size: 9px; font-family: 'Noto Sans CJK JP', 'Noto Sans CJK JP Regular', 'DejaVu Sans', sans-serif" transform="translate(139.356823 278.781666)">+ 保存則 + 境界条件</text>
   </g>
   <g id="text_7">
    <text style="font-size: 9px; font-family: 'Noto Sans CJK JP', 'Noto Sans CJK JP Regular', 'DejaVu Sans', sans-serif" transform="translate(42.193333 266.604797)">観測・境界</text>
    <text style="font-size: 9px; font-family: 'Noto Sans CJK JP', 'Noto Sans CJK JP Regular', 'DejaVu Sans', sans-serif" transform="translate(51.193333 275.604797)">データ</text>
   </g>
   <g id="text_8">
    <text style="font-size: 9.5px; font-family: 'Noto Sans CJK JP', 'Noto Sans CJK JP Regular', 'DejaVu Sans', sans-serif; text-anchor: middle" x="180.718333" y="312.160959" transform="rotate(-0 180.718333 312.160959)">総損失 = データ損失 + 物理損失</text>
   </g>
   <g id="text_9">
    <text style="font-size: 8.5px; font-family: 'Noto Sans CJK JP', 'Noto Sans CJK JP Regular', 'DejaVu Sans', sans-serif" transform="translate(199.248333 208.344291) rotate(-90)">誤差逆伝播</text>
   </g>
  </g>
  <g id="axes_2">
   <g id="patch_14">
    <path d="M 490.384 158.718199 
L 575.248 158.718199 
Q 575.9552 158.718199 575.9552 158.082825 
L 575.9552 126.314137 
Q 575.9552 125.678764 575.248 125.678764 
L 490.384 125.678764 
Q 489.6768 125.678764 489.6768 126.314137 
L 489.6768 158.082825 
Q 489.6768 158.718199 490.384 158.718199 
z
" clip-path="url(#pd6b5f29eb9)" style="fill: #ffffff; stroke: #545454; stroke-width: 1.5; stroke-linejoin: miter"/>
   </g>
   <g id="patch_15">
    <path d="M 695.472 158.718199 
L 780.336 158.718199 
Q 781.0432 158.718199 781.0432 158.082825 
L 781.0432 126.314137 
Q 781.0432 125.678764 780.336 125.678764 
L 695.472 125.678764 
Q 694.7648 125.678764 694.7648 126.314137 
L 694.7648 158.082825 
Q 694.7648 158.718199 695.472 158.718199 
z
" clip-path="url(#pd6b5f29eb9)" style="fill: #ffffff; stroke: #545454; stroke-width: 1.5; stroke-linejoin: miter"/>
   </g>
   <g id="patch_16">
    <path d="M 490.384 277.850777 
L 575.248 277.850777 
Q 575.9552 277.850777 575.9552 277.215403 
L 575.9552 245.446716 
Q 575.9552 244.811342 575.248 244.811342 
L 490.384 244.811342 
Q 489.6768 244.811342 489.6768 245.446716 
L 489.6768 277.215403 
Q 489.6768 277.850777 490.384 277.850777 
z
" clip-path="url(#pd6b5f29eb9)" style="fill: #ffffff; stroke: #606060; stroke-width: 1.5; stroke-linejoin: miter"/>
   </g>
   <g id="patch_17">
    <path d="M 695.472 277.850777 
L 780.336 277.850777 
Q 781.0432 277.850777 781.0432 277.215403 
L 781.0432 245.446716 
Q 781.0432 244.811342 780.336 244.811342 
L 695.472 244.811342 
Q 694.7648 244.811342 694.7648 245.446716 
L 694.7648 277.215403 
Q 694.7648 277.850777 695.472 277.850777 
z
" clip-path="url(#pd6b5f29eb9)" style="fill: #ffffff; stroke: #606060; stroke-width: 1.5; stroke-linejoin: miter"/>
   </g>
   <g id="patch_18">
    <path d="M 575.248 142.198481 
Q 634.476 142.198481 691.915146 142.198481 
" clip-path="url(#pd6b5f29eb9)" style="fill: none; stroke: #545454; stroke-width: 1.6; stroke-linecap: round"/>
    <path d="M 687.515146 139.998481 
L 691.915146 142.198481 
L 687.515146 144.398481 
z
" clip-path="url(#pd6b5f29eb9)" style="fill: #545454; stroke: #545454; stroke-width: 1.6; stroke-linecap: round"/>
   </g>
   <g id="patch_19">
    <path d="M 575.248 261.331059 
Q 634.476 261.331059 691.915146 261.331059 
" clip-path="url(#pd6b5f29eb9)" style="fill: none; stroke: #606060; stroke-width: 1.6; stroke-linecap: round"/>
    <path d="M 687.515146 259.131059 
L 691.915146 261.331059 
L 687.515146 263.531059 
z
" clip-path="url(#pd6b5f29eb9)" style="fill: #606060; stroke: #606060; stroke-width: 1.6; stroke-linecap: round"/>
   </g>
   <g id="text_10">
    <text style="font-weight: 700; font-size: 9px; font-family: 'Noto Sans CJK JP', 'Noto Sans CJK JP Regular', 'DejaVu Sans', sans-serif; text-anchor: start; fill: #555555" x="465.632" y="82.13349" transform="rotate(-0 465.632 82.13349)">(b) 順問題と逆問題</text>
   </g>
   <g id="text_11">
    <text style="font-weight: 700; font-size: 10px; font-family: 'Noto Sans CJK JP', 'Noto Sans CJK JP Regular', 'DejaVu Sans', sans-serif; text-anchor: middle" x="635.36" y="110.429794" transform="rotate(-0 635.36 110.429794)">順問題</text>
   </g>
   <g id="text_12">
    <text style="font-size: 9px; font-family: 'Noto Sans CJK JP', 'Noto Sans CJK JP Regular', 'DejaVu Sans', sans-serif; text-anchor: middle" x="532.816" y="145.618481" transform="rotate(-0 532.816 145.618481)">原因・初期条件</text>
   </g>
   <g id="text_13">
    <text style="font-size: 9px; font-family: 'Noto Sans CJK JP', 'Noto Sans CJK JP Regular', 'DejaVu Sans', sans-serif; text-anchor: middle" x="737.904" y="145.618481" transform="rotate(-0 737.904 145.618481)">未来の場・流れ</text>
   </g>
   <g id="text_14">
    <text style="font-size: 9px; font-family: 'Noto Sans CJK JP', 'Noto Sans CJK JP Regular', 'DejaVu Sans', sans-serif; text-anchor: middle" x="532.816" y="264.751059" transform="rotate(-0 532.816 264.751059)">限られた観測</text>
   </g>
   <g id="text_15">
    <text style="font-size: 9px; font-family: 'Noto Sans CJK JP', 'Noto Sans CJK JP Regular', 'DejaVu Sans', sans-serif" transform="translate(706.404 260.251059)">見えない物理量</text>
    <text style="font-size: 9px; font-family: 'Noto Sans CJK JP', 'Noto Sans CJK JP Regular', 'DejaVu Sans', sans-serif" transform="translate(711.039 269.251059)">・パラメータ</text>
   </g>
   <g id="text_16">
    <text style="font-size: 8.7px; font-family: 'Noto Sans CJK JP', 'Noto Sans CJK JP Regular', 'DejaVu Sans', sans-serif; text-anchor: middle; fill: #555555" x="635.36" y="178.732472" transform="rotate(-0 635.36 178.732472)">既知の方程式</text>
   </g>
   <g id="text_17">
    <text style="font-weight: 700; font-size: 10px; font-family: 'Noto Sans CJK JP', 'Noto Sans CJK JP Regular', 'DejaVu Sans', sans-serif; text-anchor: middle" x="635.36" y="229.562372" transform="rotate(-0 635.36 229.562372)">逆問題</text>
   </g>
   <g id="text_18">
    <text style="font-size: 8.7px; font-family: 'Noto Sans CJK JP', 'Noto Sans CJK JP Regular', 'DejaVu Sans', sans-serif; text-anchor: middle; fill: #555555" x="635.36" y="299.453484" transform="rotate(-0 635.36 299.453484)">観測と物理法則を同時に満たす原因を探索</text>
   </g>
  </g>
  <g id="text_19">
   <text style="font-weight: 700; font-size: 14px; font-family: 'Noto Sans CJK JP', 'Noto Sans CJK JP Regular', 'DejaVu Sans', sans-serif; text-anchor: middle" x="408.96" y="18.08" transform="rotate(-0 408.96 18.08)">PINNs：データ誤差だけでなく『物理法則違反』も罰する</text>
  </g>
 </g>
 <defs>
  <clipPath id="p765657f4c6">
   <rect x="5.76" y="69.1305" width="442" height="254.1495"/>
  </clipPath>
  <clipPath id="pd6b5f29eb9">
   <rect x="458.56" y="69.1305" width="353.6" height="254.1495"/>
  </clipPath>
 </defs>
</svg>
